<svg width="487" height="385" viewBox="0 0 487 385" fill="none" xmlns="http://www.w3.org/2000/svg">
<path d="M312.826 412.942C302.83 411.892 293.136 410.367 283.741 408.363L281.529 407.881L281.517 407.877C234.726 396.368 194.456 376.557 160.963 348.235L160.953 348.226L160.943 348.217C139.035 327.792 126.3 303.904 122.731 276.605C119.163 249.317 124.761 218.666 139.434 184.71L139.435 184.707C153.461 152.747 173.042 125.514 198.288 102.758L198.291 102.755C243.415 62.8604 301.844 38.168 373.856 28.6346L373.855 28.6333C401.878 24.8726 430.843 23.8218 460.622 25.4225L460.63 25.4229L460.637 25.423C466.422 25.9056 471.043 25.9613 474.573 25.6252C478.116 25.2878 480.481 24.5625 481.834 23.55C483.705 21.9878 484.906 20.4481 485.482 18.9344C486.053 17.4342 486.025 15.9225 485.37 14.3626L485.362 14.3442L485.356 14.3244C484.794 12.6428 482.73 11.0764 478.53 9.98723C344.543 -13.2544 224.913 6.4138 119.738 69.0222C81.9608 92.4039 52.9709 119.008 32.8026 148.697C-1.91472 204.959 -8.63731 256.309 12.7807 302.805L12.7816 302.805L12.7866 302.818C36.4324 357.766 90.5423 399.386 174.652 427.323L312.826 412.942ZM324.363 412.839C353.457 414.804 385.037 412.908 419.176 407.176L419.201 407.172L419.227 407.171C435.093 406.016 449.541 402.999 462.773 398.433L324.363 412.839Z" fill="#0D9488" fill-opacity="0.16" stroke="#0D9488" stroke-width="1.09221"/>
</svg>
